<svg width="278" height="457" viewBox="0 0 278 457" fill="none" xmlns="http://www.w3.org/2000/svg">
<path d="M225.704 149.538L209.799 144.713L199.287 179.367L215.192 184.192L225.704 149.538Z" fill="#000099"/>
<path d="M245.529 366.902C246.258 368.391 250.184 377.367 252.181 378.216C255.795 379.737 273.715 369.329 274.154 368.037C274.594 366.745 274.222 364.655 273.18 364.52C272.138 364.385 264.031 366.539 262.693 366.338C261.355 366.137 258.151 363.156 257.694 360.923" fill="#000099"/>
<path d="M9.86763 238.639C12.5017 299.349 32.3697 311.26 51.5833 310.427C100.253 308.315 161.877 266.534 165.387 264.872C164.54 271.306 164.469 433.485 164.51 434.419C166.253 435.661 179.231 436.235 183.533 434.911C184.487 430.927 210.322 236.914 210.102 231.844C209.882 226.773 206.602 219.189 195.412 218.559C190.681 218.291 125.03 218.414 125.03 218.414" fill="#000099"/>
<path d="M173.187 188.424C188.876 209.145 261.261 355.395 260.828 358.906C260.394 362.417 245.56 370.46 242.269 368.61C228.313 360.824 138.753 223.709 135.412 221.726C132.071 219.742 127.238 220.774 124.363 221.484C116.275 209.276 132.516 193.658 173.187 188.424Z" fill="#00CC99"/>
<path d="M101.911 71.625C123.924 70.6699 131.158 91.2391 133.321 99.0299C140.235 123.904 128.166 220.091 126.403 222.804C111.438 245.766 20.4589 251.696 11.1588 242.435C1.85856 233.175 41.7634 74.2347 101.911 71.625Z" fill="#80DAC3"/>
<path d="M168.67 431.918C168.448 433.561 166.659 443.201 167.842 445.02C169.967 448.307 190.653 449.741 191.744 448.916C192.834 448.092 193.685 446.151 192.913 445.486C192.14 444.821 184.202 442.034 183.205 441.109C182.207 440.184 181.223 435.924 182.111 433.813" fill="#000099"/>
<path d="M98.808 76.1638C98.2951 78.1009 114.042 82.2611 114.556 80.3352L119.743 60.7365L104.006 56.5646L98.808 76.1638Z" fill="#F8CDBA"/>
<path d="M113.78 65.5796C112.242 65.1732 101.268 66.9222 100.629 69.3378L104.006 56.5646C106.456 57.213 113.78 65.5796 113.78 65.5796Z" fill="#000099"/>
<path d="M122.583 68.3064C135.181 67.7598 144.951 57.1037 144.404 44.5054C143.858 31.9071 133.202 22.1373 120.603 22.6839C108.005 23.2305 98.2352 33.8866 98.7819 46.4849C99.3285 59.0832 109.985 68.8531 122.583 68.3064Z" fill="#F8CDBA"/>
<path d="M144.867 56.5248C145.162 55.4134 143.667 54.0529 141.528 53.4861C139.39 52.9192 137.417 53.3606 137.123 54.472C136.828 55.5834 138.323 56.9439 140.462 57.5108C142.6 58.0776 144.573 57.6362 144.867 56.5248Z" fill="#FA9E9F"/>
<path d="M120.558 50.0863C120.852 48.9749 119.357 47.6144 117.219 47.0475C115.08 46.4806 113.107 46.922 112.813 48.0334C112.518 49.1448 114.013 50.5053 116.152 51.0722C118.29 51.6391 120.263 51.1977 120.558 50.0863Z" fill="#FA9E9F"/>
<path d="M132.675 48.8328C133.122 50.0524 135.696 55.3699 131.323 56.089" stroke="#000099" stroke-width="1.2" stroke-miterlimit="10" stroke-linecap="round"/>
<path d="M122.171 59.0767C121.03 58.732 119.597 56.8568 119 55.2945" stroke="#000099" stroke-width="1.2" stroke-miterlimit="10" stroke-linecap="round"/>
<path d="M127.198 15.2678C121.15 14.7755 103.465 10.339 99.3397 6.90232C97.5051 7.97314 90.4931 14.8442 84.9306 23.9726L93.7421 32.0945L82.8592 27.6331C80.2473 32.3626 78.5354 37.5355 77.8104 42.8893C80.8873 50.2012 89.6655 52.884 91.3045 53.0157C101.874 53.8862 105.201 37.3756 110.409 35.1222C119.253 31.2804 130.232 39.7813 143.53 38.6411C146.225 32.4756 141.678 16.453 127.198 15.2678Z" fill="#000099"/>
<path d="M100.747 47.8977C103.659 47.7714 105.917 45.3083 105.791 42.3962C105.664 39.4841 103.201 37.2258 100.289 37.3522C97.3771 37.4785 95.1188 39.9417 95.2451 42.8537C95.3715 45.7658 97.8346 48.0241 100.747 47.8977Z" fill="#F8CDBA"/>
<path d="M81.4201 126.085C80.6012 133.171 79.842 199.784 88.8467 205.87C108.132 218.899 193.685 198.224 206.55 192.811C207.765 188.118 205.71 173.463 205.71 173.463C200.665 173.479 137.095 175.629 133.098 170.981C129.1 166.334 126.944 127.015 127.358 122.548" fill="#80DAC3"/>
<path d="M215.408 193.97C222.158 193.677 227.392 187.968 227.099 181.219C226.806 174.47 221.097 169.236 214.348 169.529C207.599 169.821 202.365 175.53 202.657 182.28C202.95 189.029 208.659 194.263 215.408 193.97Z" fill="#F8CDBA"/>
<path d="M133.088 171.016C129.044 166.336 126.934 127.05 127.348 122.583" stroke="#000099" stroke-linecap="round" stroke-linejoin="round"/>
<path d="M128.761 209.14C111.197 210.882 95.7639 210.571 88.8467 205.87C84.9018 203.214 82.8305 188.965 81.7966 173.185" stroke="#000099" stroke-linecap="round" stroke-linejoin="round"/>
</svg>
